<svg xmlns="http://www.w3.org/2000/svg" viewBox="0 0 1200 400" role="img" aria-labelledby="title desc">
  <title id="title">ARMOR-VOICE-AI</title><desc id="desc">ARMOR-VOICE-AI | A.R.M.O.R. Autonomous Radar &amp; Multimodal Observation Range</desc>
  <defs>
    <linearGradient id="bg" x1="0%" y1="0%" x2="100%" y2="100%"><stop stop-color="#07090C"/><stop offset="1" stop-color="#12161C"/></linearGradient>
    <filter id="g"><feGaussianBlur stdDeviation="4" result="b"/><feMerge><feMergeNode in="b"/><feMergeNode in="SourceGraphic"/></feMerge></filter>
  </defs>
  <rect width="1200" height="400" fill="url(#bg)"/>
  <g fill="none" stroke="#00E5FF" stroke-width="1" opacity=".25"><path d="M0 100H200L250 150H600"/><path d="M1200 300H1000L950 250H600"/><path d="M1200 80H1040L1000 120H760"/></g>
  <g transform="translate(205 190)"><g transform="scale(1.0)" filter="url(#g)" fill="none" stroke-linecap="round" stroke-linejoin="round" stroke="#00E5FF" stroke-width="4">
    <path d="M0,-84 L66,-58 V4 C66,48 34,72 0,88 C-34,72 -66,48 -66,4 V-58 Z"/>
    <g transform="scale(.78) translate(0 4)" stroke-width="4">
    <rect x="-13" y="-42" width="26" height="46" rx="13"/><path d="M-26,-6 a26,26 0 0 0 52,0 M0,20 v18 M-14,38 h28"/>
    <path d="M-42,-22 q-6,16 0,32 M42,-22 q6,16 0,32" stroke="#FFB020" stroke-width="3"/>
    </g>
  </g></g>
  <text x="360" y="136" font-family="Arial,sans-serif" font-size="50" font-weight="bold" fill="#FFF" letter-spacing="8">A.R.M.O.R.</text>
  <text x="364" y="181" font-family="Arial,sans-serif" font-size="17" fill="#00E5FF" letter-spacing="4">AUTONOMOUS RADAR &amp; MULTIMODAL OBSERVATION RANGE</text>
  <text x="360" y="246" font-family="Arial,sans-serif" font-size="29" font-weight="bold" fill="#FFF">ARMOR-VOICE-AI</text>
  <text x="362" y="280" font-family="Arial,sans-serif" font-size="16" fill="#FFB020" letter-spacing="3">OFFLINE VOICE INTENT BOUNDARY</text>
  <g font-family="monospace" font-size="12" fill="#00E5FF" opacity=".65"><text x="105" y="360">#WHISPER</text><text x="255" y="360">#PIPER</text><text x="405" y="360">#WYOMING</text><text x="555" y="360">#PYTHON</text></g>
</svg>
